<mxfile host="app.diagrams.net" agent="Mozilla/5.0 (Macintosh; Intel Mac OS X 10_15_7) AppleWebKit/537.36 (KHTML, like Gecko) Chrome/128.0.0.0 Safari/537.36 Edg/128.0.0.0" version="24.7.12">
  <diagram name="第 1 页" id="TZFfbjAKG4-1BkYDQpBm">
    <mxGraphModel dx="395" dy="245" grid="1" gridSize="10" guides="1" tooltips="1" connect="1" arrows="1" fold="1" page="1" pageScale="1" pageWidth="827" pageHeight="1169" math="0" shadow="0">
      <root>
        <mxCell id="0" />
        <mxCell id="1" parent="0" />
        <mxCell id="57cuToI_xoXF8MMXr-vU-1" value="" style="rounded=0;whiteSpace=wrap;html=1;strokeWidth=1;" vertex="1" parent="1">
          <mxGeometry x="220" y="260" width="380" height="200" as="geometry" />
        </mxCell>
        <mxCell id="57cuToI_xoXF8MMXr-vU-6" value="" style="rounded=0;whiteSpace=wrap;html=1;" vertex="1" parent="1">
          <mxGeometry x="220" y="275" width="380" height="40" as="geometry" />
        </mxCell>
        <mxCell id="57cuToI_xoXF8MMXr-vU-7" value="" style="ellipse;whiteSpace=wrap;html=1;aspect=fixed;" vertex="1" parent="1">
          <mxGeometry x="370" y="315" width="10" height="10" as="geometry" />
        </mxCell>
        <mxCell id="57cuToI_xoXF8MMXr-vU-11" value="" style="ellipse;whiteSpace=wrap;html=1;aspect=fixed;" vertex="1" parent="1">
          <mxGeometry x="405" y="315" width="10" height="10" as="geometry" />
        </mxCell>
        <mxCell id="57cuToI_xoXF8MMXr-vU-12" value="" style="ellipse;whiteSpace=wrap;html=1;aspect=fixed;" vertex="1" parent="1">
          <mxGeometry x="445" y="315" width="10" height="10" as="geometry" />
        </mxCell>
        <mxCell id="57cuToI_xoXF8MMXr-vU-13" value="" style="ellipse;whiteSpace=wrap;html=1;aspect=fixed;" vertex="1" parent="1">
          <mxGeometry x="490" y="315" width="10" height="10" as="geometry" />
        </mxCell>
        <mxCell id="57cuToI_xoXF8MMXr-vU-14" value="" style="ellipse;whiteSpace=wrap;html=1;aspect=fixed;" vertex="1" parent="1">
          <mxGeometry x="330" y="315" width="10" height="10" as="geometry" />
        </mxCell>
        <mxCell id="57cuToI_xoXF8MMXr-vU-16" value="" style="endArrow=classic;startArrow=classic;html=1;rounded=0;exitX=0.289;exitY=0.469;exitDx=0;exitDy=0;exitPerimeter=0;" edge="1" parent="1">
          <mxGeometry width="50" height="50" relative="1" as="geometry">
            <mxPoint x="335.82000000000005" y="310.05000000000007" as="sourcePoint" />
            <mxPoint x="376" y="310" as="targetPoint" />
            <Array as="points">
              <mxPoint x="355.82" y="310" />
            </Array>
          </mxGeometry>
        </mxCell>
        <mxCell id="57cuToI_xoXF8MMXr-vU-20" value="" style="endArrow=none;dashed=1;html=1;rounded=0;" edge="1" parent="1">
          <mxGeometry width="50" height="50" relative="1" as="geometry">
            <mxPoint x="335" y="330" as="sourcePoint" />
            <mxPoint x="334.83" y="300" as="targetPoint" />
          </mxGeometry>
        </mxCell>
        <mxCell id="57cuToI_xoXF8MMXr-vU-22" value="" style="endArrow=none;dashed=1;html=1;rounded=0;" edge="1" parent="1">
          <mxGeometry width="50" height="50" relative="1" as="geometry">
            <mxPoint x="375" y="330" as="sourcePoint" />
            <mxPoint x="374.83" y="300" as="targetPoint" />
          </mxGeometry>
        </mxCell>
        <mxCell id="57cuToI_xoXF8MMXr-vU-23" value="" style="endArrow=none;dashed=1;html=1;rounded=0;exitX=0.5;exitY=0.35;exitDx=0;exitDy=0;exitPerimeter=0;" edge="1" parent="1" source="57cuToI_xoXF8MMXr-vU-1">
          <mxGeometry width="50" height="50" relative="1" as="geometry">
            <mxPoint x="410.00999999999993" y="312" as="sourcePoint" />
            <mxPoint x="409.83" y="270" as="targetPoint" />
            <Array as="points">
              <mxPoint x="409.83" y="300" />
            </Array>
          </mxGeometry>
        </mxCell>
        <mxCell id="57cuToI_xoXF8MMXr-vU-24" value="" style="endArrow=none;dashed=1;html=1;rounded=0;" edge="1" parent="1">
          <mxGeometry width="50" height="50" relative="1" as="geometry">
            <mxPoint x="450.17" y="330" as="sourcePoint" />
            <mxPoint x="450" y="300" as="targetPoint" />
          </mxGeometry>
        </mxCell>
        <mxCell id="57cuToI_xoXF8MMXr-vU-25" value="" style="endArrow=none;dashed=1;html=1;rounded=0;" edge="1" parent="1">
          <mxGeometry width="50" height="50" relative="1" as="geometry">
            <mxPoint x="495" y="360" as="sourcePoint" />
            <mxPoint x="495" y="300" as="targetPoint" />
          </mxGeometry>
        </mxCell>
        <mxCell id="57cuToI_xoXF8MMXr-vU-26" value="" style="endArrow=classic;startArrow=classic;html=1;rounded=0;" edge="1" parent="1">
          <mxGeometry width="50" height="50" relative="1" as="geometry">
            <mxPoint x="415.41" y="294.83" as="sourcePoint" />
            <mxPoint x="594.59" y="294.83" as="targetPoint" />
            <Array as="points">
              <mxPoint x="574.41" y="294.83" />
            </Array>
          </mxGeometry>
        </mxCell>
        <mxCell id="57cuToI_xoXF8MMXr-vU-27" value="" style="endArrow=none;dashed=1;html=1;rounded=0;exitX=0.511;exitY=0.925;exitDx=0;exitDy=0;exitPerimeter=0;" edge="1" parent="1">
          <mxGeometry width="50" height="50" relative="1" as="geometry">
            <mxPoint x="599.84" y="290" as="sourcePoint" />
            <mxPoint x="599.67" y="253" as="targetPoint" />
          </mxGeometry>
        </mxCell>
        <mxCell id="57cuToI_xoXF8MMXr-vU-28" value="90cm" style="text;html=1;align=center;verticalAlign=middle;resizable=0;points=[];autosize=1;strokeColor=none;fillColor=none;" vertex="1" parent="1">
          <mxGeometry x="470" y="270" width="50" height="30" as="geometry" />
        </mxCell>
        <mxCell id="57cuToI_xoXF8MMXr-vU-29" value="2cm" style="text;html=1;align=center;verticalAlign=middle;whiteSpace=wrap;rounded=0;" vertex="1" parent="1">
          <mxGeometry x="250" y="250" width="60" height="30" as="geometry" />
        </mxCell>
        <mxCell id="57cuToI_xoXF8MMXr-vU-30" value="" style="endArrow=classic;startArrow=classic;html=1;rounded=0;entryX=0.158;entryY=0.55;entryDx=0;entryDy=0;entryPerimeter=0;" edge="1" parent="1">
          <mxGeometry width="50" height="50" relative="1" as="geometry">
            <mxPoint x="249.9999999999999" y="275" as="sourcePoint" />
            <mxPoint x="250.03999999999996" y="315" as="targetPoint" />
          </mxGeometry>
        </mxCell>
        <mxCell id="57cuToI_xoXF8MMXr-vU-31" value="5cm" style="text;html=1;align=center;verticalAlign=middle;whiteSpace=wrap;rounded=0;" vertex="1" parent="1">
          <mxGeometry x="240" y="280" width="60" height="30" as="geometry" />
        </mxCell>
        <mxCell id="57cuToI_xoXF8MMXr-vU-32" value="" style="endArrow=none;dashed=1;html=1;rounded=0;exitX=0.5;exitY=0.3;exitDx=0;exitDy=0;exitPerimeter=0;" edge="1" parent="1">
          <mxGeometry width="50" height="50" relative="1" as="geometry">
            <mxPoint x="490" y="315" as="sourcePoint" />
            <mxPoint x="549" y="315" as="targetPoint" />
          </mxGeometry>
        </mxCell>
        <mxCell id="57cuToI_xoXF8MMXr-vU-33" value="" style="endArrow=none;dashed=1;html=1;rounded=0;exitX=0.5;exitY=0.3;exitDx=0;exitDy=0;exitPerimeter=0;" edge="1" parent="1">
          <mxGeometry width="50" height="50" relative="1" as="geometry">
            <mxPoint x="490" y="325" as="sourcePoint" />
            <mxPoint x="549" y="325" as="targetPoint" />
          </mxGeometry>
        </mxCell>
        <mxCell id="57cuToI_xoXF8MMXr-vU-34" value="1cm" style="text;html=1;align=center;verticalAlign=middle;whiteSpace=wrap;rounded=0;" vertex="1" parent="1">
          <mxGeometry x="490" y="305" width="60" height="30" as="geometry" />
        </mxCell>
        <mxCell id="57cuToI_xoXF8MMXr-vU-35" value="20cm" style="text;html=1;align=center;verticalAlign=middle;whiteSpace=wrap;rounded=0;" vertex="1" parent="1">
          <mxGeometry x="342" y="330" width="24" height="5" as="geometry" />
        </mxCell>
        <mxCell id="57cuToI_xoXF8MMXr-vU-56" value="80cm" style="text;html=1;align=center;verticalAlign=middle;whiteSpace=wrap;rounded=0;" vertex="1" parent="1">
          <mxGeometry x="170" y="345" width="60" height="30" as="geometry" />
        </mxCell>
        <mxCell id="57cuToI_xoXF8MMXr-vU-57" value="180cm" style="text;html=1;align=center;verticalAlign=middle;whiteSpace=wrap;rounded=0;" vertex="1" parent="1">
          <mxGeometry x="384" y="460" width="60" height="30" as="geometry" />
        </mxCell>
        <mxCell id="57cuToI_xoXF8MMXr-vU-60" value="50cm" style="text;html=1;align=center;verticalAlign=middle;whiteSpace=wrap;rounded=0;" vertex="1" parent="1">
          <mxGeometry x="540" y="350" width="24" height="5" as="geometry" />
        </mxCell>
        <mxCell id="57cuToI_xoXF8MMXr-vU-61" value="20cm" style="text;html=1;align=center;verticalAlign=middle;whiteSpace=wrap;rounded=0;" vertex="1" parent="1">
          <mxGeometry x="381" y="330" width="24" height="5" as="geometry" />
        </mxCell>
        <mxCell id="57cuToI_xoXF8MMXr-vU-62" value="20cm" style="text;html=1;align=center;verticalAlign=middle;whiteSpace=wrap;rounded=0;" vertex="1" parent="1">
          <mxGeometry x="420" y="330" width="24" height="5" as="geometry" />
        </mxCell>
        <mxCell id="57cuToI_xoXF8MMXr-vU-63" value="20cm" style="text;html=1;align=center;verticalAlign=middle;whiteSpace=wrap;rounded=0;" vertex="1" parent="1">
          <mxGeometry x="463" y="330" width="24" height="5" as="geometry" />
        </mxCell>
        <mxCell id="57cuToI_xoXF8MMXr-vU-68" value="" style="endArrow=classic;startArrow=classic;html=1;rounded=0;" edge="1" parent="1">
          <mxGeometry width="50" height="50" relative="1" as="geometry">
            <mxPoint x="500" y="345" as="sourcePoint" />
            <mxPoint x="599.1800000000001" y="345" as="targetPoint" />
            <Array as="points">
              <mxPoint x="579" y="345" />
            </Array>
          </mxGeometry>
        </mxCell>
        <mxCell id="57cuToI_xoXF8MMXr-vU-69" value="架子支撑衡量区域" style="text;html=1;align=center;verticalAlign=middle;whiteSpace=wrap;rounded=0;" vertex="1" parent="1">
          <mxGeometry x="280" y="275" width="120" height="30" as="geometry" />
        </mxCell>
      </root>
    </mxGraphModel>
  </diagram>
</mxfile>
